# xmcd CD Database Entry
#
# Track frame offsets:
# 150
# 11130
# 26385
# 39307
# 52965
# 69652
# 81670
# 92200
# 109122
#
# Disc length: 1608 seconds
#
# Revision: 2
# Processed by: cddbd v1.4b41PL1 Copyright (c) Steve Scherf et al.
# Submitted via: tcd 2.0b
#
DISCID=70064609
DTITLE=Satellite 77 - Everyone's A Critic
DYEAR=1900
DGENRE=
TTITLE0=Adam
TTITLE1=Shame
TTITLE2=Saturn Boy
TTITLE3=Nine
TTITLE4=Shore
TTITLE5=Icon
TTITLE6=Tomorrow
TTITLE7=It's Over
TTITLE8=Lawnware
EXTD=
EXTT0=
EXTT1=
EXTT2=
EXTT3=
EXTT4=
EXTT5=
EXTT6=
EXTT7=
EXTT8=
PLAYORDER=
